<svg version="1.1" id="Layer_1" xmlns="http://www.w3.org/2000/svg" xmlns:xlink="http://www.w3.org/1999/xlink" x="0px" y="0px"
	 width="100%" viewBox="0 0 335 86" enable-background="new 0 0 335 86" xml:space="preserve">
<path fill="#303133" opacity="1.000000" stroke="none" 
	d="
M239.000000,87.000000 
	C159.333359,87.000000 80.166718,87.000000 1.000053,87.000000 
	C1.000035,58.333366 1.000035,29.666731 1.000018,1.000072 
	C112.666603,1.000048 224.333206,1.000048 335.999878,1.000024 
	C335.999908,29.666594 335.999908,58.333187 335.999939,86.999893 
	C303.833344,87.000000 271.666656,87.000000 239.000000,87.000000 
M150.425339,33.943829 
	C149.912247,34.173664 149.399155,34.403500 148.225739,34.794003 
	C147.165329,35.614788 146.104919,36.435574 144.510895,37.143303 
	C144.352921,37.053303 144.194931,36.963299 144.187332,36.095409 
	C144.087585,31.358065 142.099213,27.879528 137.151596,27.266867 
	C132.280197,26.663641 128.468231,28.769907 125.359917,33.114780 
	C125.009682,32.817657 124.659447,32.520535 124.380852,31.528393 
	C122.451294,26.615974 118.641647,26.684536 114.514427,27.919300 
	C110.640755,29.078211 107.765068,31.113705 108.267197,36.142040 
	C109.578468,35.987522 110.530739,35.960743 111.440086,35.749336 
	C113.047417,35.375660 114.628632,34.889591 116.220772,34.450558 
	C116.406433,36.374256 116.959976,38.347523 116.708710,40.212349 
	C115.957710,45.786167 114.891495,51.317513 113.343361,56.950756 
	C112.888504,57.278130 112.433640,57.605503 111.291870,58.033844 
	C108.861130,60.077717 106.430382,62.121593 102.944572,65.052612 
	C104.025963,58.154625 105.048645,52.782494 105.600746,47.362431 
	C105.753578,45.862015 104.838791,43.203640 103.827560,42.873753 
	C102.211830,42.346684 99.556221,42.728836 98.363121,43.832424 
	C97.195267,44.912651 97.341637,47.384968 96.849083,49.229683 
	C95.624741,53.815178 94.533775,58.449707 92.983154,62.923801 
	C92.656509,63.866264 90.591393,64.206207 89.327324,64.823776 
	C88.882492,63.531086 87.902153,62.152561 88.093018,60.961765 
	C88.670418,57.359428 89.865387,53.859695 90.521118,50.265507 
	C91.718056,43.704834 89.372421,41.760170 82.329498,43.905544 
	C82.134895,44.605911 81.940292,45.306278 81.370789,46.826378 
	C80.777588,53.747528 80.574478,60.877182 71.568459,64.129875 
	C71.600525,55.830128 71.792091,48.113319 75.519653,40.801311 
	C76.760857,38.366550 78.050026,35.577442 77.981453,32.985664 
	C77.934998,31.229618 75.796509,29.172291 74.074448,28.037998 
	C73.568344,27.704639 70.659241,29.763418 69.942444,31.251417 
	C68.102264,35.071400 66.874107,39.186207 65.412109,43.153824 
	C55.948170,42.813629 50.172955,46.034725 46.762875,53.499348 
	C43.165581,61.373783 36.010933,64.806641 27.701496,62.645157 
	C22.187416,61.210812 20.273560,58.271812 20.957073,52.288128 
	C21.578074,46.851673 23.405514,45.374844 29.433901,45.236271 
	C30.910892,45.202320 32.529114,45.148399 33.805763,44.531322 
	C34.810440,44.045700 35.977772,42.685486 35.987595,41.702908 
	C35.996895,40.772446 34.752968,39.565937 33.765476,38.965710 
	C32.842049,38.404423 31.522806,38.264309 30.393314,38.311447 
	C25.179052,38.529026 24.754766,35.220966 24.619127,30.905602 
	C26.816204,31.730453 28.463503,32.476421 30.182896,32.972542 
	C38.015869,35.232700 44.867081,32.332920 47.237244,25.538218 
	C47.160194,24.691326 47.083145,23.844433 47.090801,22.257481 
	C44.850208,20.092123 42.931229,16.770733 40.292458,16.036608 
	C36.483772,14.977004 32.089119,15.344767 28.059698,15.916046 
	C21.963978,16.780277 18.478071,16.528648 13.480791,13.637698 
	C13.137714,13.439226 12.550541,13.662698 10.944055,13.755103 
	C11.862540,16.289286 12.659177,18.440393 13.420099,20.604059 
	C13.887479,21.933043 15.017529,23.562307 14.620706,24.575056 
	C12.103971,30.998093 13.846234,36.479538 18.188726,41.699932 
	C11.237062,45.086029 7.757891,50.326183 8.355218,57.808029 
	C8.775348,63.070385 10.704477,67.454071 16.622349,69.785980 
	C17.416893,69.982018 18.211437,70.178055 19.587414,70.820747 
	C20.066517,70.856506 20.545620,70.892265 21.442616,71.272377 
	C21.963911,71.268524 22.485207,71.264671 23.851624,71.626999 
	C26.898293,71.542732 29.944962,71.458466 33.505764,71.577087 
	C33.996170,71.365288 34.486576,71.153496 35.728516,70.994148 
	C38.958282,69.751526 42.188049,68.508904 45.558800,67.212036 
	C51.789879,73.188637 55.866779,73.332260 64.560944,67.649155 
	C67.821083,72.542458 69.389267,72.549095 78.434677,67.707886 
	C84.251183,72.593430 89.355057,72.674416 95.477875,67.852959 
	C97.415054,71.875107 100.546722,72.055367 103.989769,70.143089 
	C106.429436,68.788094 108.665054,67.065720 111.628159,65.885368 
	C112.758423,67.808212 113.888680,69.731056 115.750511,71.945160 
	C122.675926,70.778618 123.751053,69.171021 122.529137,61.503254 
	C122.332985,61.007229 122.136833,60.511204 122.015549,59.193520 
	C123.324799,54.124187 124.634048,49.054852 126.364464,43.590412 
	C126.546951,43.059063 126.729439,42.527714 127.391548,41.499195 
	C128.279617,40.306530 128.950821,38.799992 130.109680,37.999237 
	C131.617981,36.957016 133.513474,36.475147 135.242340,35.752125 
	C135.855591,37.357475 136.812057,38.926159 136.988541,40.578167 
	C137.176651,42.338810 136.777573,44.212757 136.372971,45.977180 
	C134.817932,52.758327 132.912292,59.472324 131.712677,66.312256 
	C131.418732,67.988312 133.305466,70.046829 134.189621,71.929512 
	C136.301422,70.428070 138.552551,69.075859 140.429733,67.323158 
	C140.915878,66.869255 140.230652,65.160774 140.310776,63.544411 
	C140.246124,63.023060 140.181473,62.501705 140.487442,61.203053 
	C141.980392,53.409878 144.152084,46.036533 152.128006,42.051697 
	C152.703094,44.200699 152.816254,46.137459 152.441956,47.974903 
	C151.416336,53.009514 150.185684,58.002354 148.707230,63.459915 
	C148.724503,64.339188 148.741776,65.218460 148.710068,66.877281 
	C150.003708,68.252350 151.407135,70.879875 152.571320,70.777840 
	C156.795822,70.407555 160.940125,69.122322 165.688843,68.052940 
	C171.267929,73.276207 176.250198,73.273209 183.686539,67.360405 
	C187.148682,72.756752 188.179977,72.722687 198.780777,66.816216 
	C199.733902,69.132988 199.182953,73.146194 203.706436,71.674385 
	C207.276306,70.512856 209.400192,68.614265 207.932053,64.253014 
	C206.265991,59.303871 208.630142,55.113857 211.634613,51.421722 
	C212.384293,50.500439 214.192734,50.440731 215.514557,49.985023 
	C215.809433,51.168373 216.444000,52.383869 216.335632,53.529053 
	C216.007599,56.995426 215.018555,60.428875 214.966003,63.885471 
	C214.858917,70.929817 218.259857,72.940201 224.486801,69.829926 
	C226.227417,68.960503 227.901001,67.956871 229.546860,67.047119 
	C235.605545,73.216064 241.014755,73.264366 248.740555,67.170357 
	C249.744644,71.260674 252.493500,71.838852 256.514038,70.829773 
	C257.108002,70.460289 257.701965,70.090805 258.986298,69.507561 
	C260.989258,68.338943 262.992218,67.170326 264.994812,66.613823 
	C265.666748,67.331039 266.338654,68.048256 267.515778,69.322319 
	C274.244568,73.046768 278.830780,72.708984 284.290955,68.086800 
	C286.297516,66.388199 293.755554,66.491661 295.675964,68.244743 
	C300.428497,72.583176 306.769623,72.915985 313.651703,69.006584 
	C314.256317,68.391914 314.860931,67.777245 316.204468,66.882767 
	C319.469238,65.907913 322.734039,64.933060 326.616882,63.622154 
	C327.023224,62.083649 327.429535,60.545139 327.835846,59.006630 
	C326.913757,58.853649 325.991699,58.700668 324.472260,58.825230 
	C323.316132,59.461845 322.160034,60.098465 320.659668,60.924641 
	C320.810669,58.813152 320.911102,57.408535 321.258331,55.647877 
	C321.170776,55.099159 321.083252,54.550442 321.097717,53.242985 
	C319.464508,51.455669 316.122498,49.117264 316.490723,47.975410 
	C318.182037,42.730991 313.613983,43.751575 311.852264,43.317440 
	C304.528900,41.512756 298.061951,45.016338 293.966827,52.680889 
	C293.678558,53.788300 293.390320,54.895710 292.789856,56.678226 
	C291.787476,58.628441 290.785095,60.578655 289.782745,62.528870 
	C289.275909,62.412994 288.769104,62.297119 288.262299,62.181248 
	C286.914093,58.805077 285.565887,55.428909 284.026978,51.436985 
	C283.675446,51.219185 283.323914,51.001389 282.631317,50.135143 
	C277.289520,50.654892 276.096558,53.345680 278.299438,58.183754 
	C279.183289,60.124920 278.621246,62.798649 278.372284,65.101646 
	C278.334808,65.448341 275.676086,66.061890 275.474152,65.748978 
	C274.378937,64.051956 272.915131,62.075275 272.981110,60.245510 
	C273.162842,55.207214 274.041748,50.194061 274.484711,46.504368 
	C280.456207,44.291458 285.446289,43.203560 289.479004,40.620766 
	C291.441803,39.363667 292.829559,35.008381 292.228638,32.621834 
	C291.717560,30.592113 288.157898,28.480808 285.635742,27.983124 
	C280.356415,26.941372 276.556488,30.306580 273.370972,34.115326 
	C271.807495,35.984711 270.521210,38.085934 269.203094,39.949795 
	C267.177856,39.656166 265.501038,39.413052 263.824219,39.169937 
	C263.627350,39.538620 263.430450,39.907303 263.233582,40.275986 
	C264.503143,41.615318 265.772736,42.954647 267.031647,44.289177 
	C266.095703,47.624619 265.539948,51.133801 264.117462,54.246910 
	C262.678345,57.396343 260.448425,60.204159 258.350159,63.000473 
	C258.152313,63.264164 256.418549,62.375343 255.570526,61.184742 
	C255.439621,59.782284 255.308701,58.379826 255.469986,56.193668 
	C256.147919,52.764256 256.825897,49.334846 257.237000,45.220577 
	C255.834488,44.374485 254.431992,43.528393 252.091904,42.530338 
	C250.684357,42.729485 249.265656,43.157738 247.871078,43.089977 
	C239.819672,42.698769 234.080444,46.325409 230.418320,54.304283 
	C230.326355,54.871044 230.234375,55.437801 229.769562,56.629135 
	C228.000443,59.256718 226.231323,61.884304 224.462204,64.511887 
	C223.994781,64.229271 223.527359,63.946659 223.059937,63.664043 
	C223.333420,61.763683 223.606903,59.863327 224.282501,57.577019 
	C224.357666,57.045296 224.432831,56.513573 224.819839,55.126492 
	C226.263290,44.643845 221.765244,40.621059 211.955811,44.347031 
	C211.635727,44.653702 211.315628,44.960369 210.299240,45.059212 
	C206.375549,40.765350 204.964005,40.802399 202.511536,45.841469 
	C201.225296,48.484287 200.288025,51.414536 199.827698,54.315670 
	C199.027954,59.355804 195.529434,61.679607 190.918869,63.732758 
	C190.938797,58.981487 191.751633,54.442818 192.344284,49.875580 
	C192.554367,48.256413 192.864899,45.941162 191.996521,45.058807 
	C190.721588,43.763325 188.461090,43.356976 186.552032,42.811432 
	C185.908340,42.627491 185.058121,43.350395 184.299011,43.358677 
	C172.484695,43.487534 168.150955,46.561096 164.711761,57.485752 
	C163.581741,61.075272 161.224701,63.055176 156.912186,64.314186 
	C158.052536,57.667721 159.051941,51.842670 160.363464,45.558064 
	C160.321396,45.031586 160.279312,44.505104 160.502274,43.284668 
	C160.045349,41.188118 159.588440,39.091564 159.000336,36.344017 
	C158.340225,35.792995 157.680130,35.241978 156.584030,34.195396 
	C156.149979,34.170387 155.715912,34.145378 154.961975,33.853958 
	C154.303345,33.888313 153.644730,33.922672 152.325241,33.766617 
	C151.884109,33.857712 151.442993,33.948807 150.425339,33.943829 
z"/>
<path fill="#F9FAFA" opacity="1.000000" stroke="none" 
	d="
M264.995178,66.001717 
	C262.992218,67.170326 260.989258,68.338943 258.484833,69.350601 
	C257.319153,69.711060 256.654938,70.228477 255.990707,70.745888 
	C252.493500,71.838852 249.744644,71.260674 248.740555,67.170357 
	C241.014755,73.264366 235.605545,73.216064 229.546860,67.047119 
	C227.901001,67.956871 226.227417,68.960503 224.486801,69.829926 
	C218.259857,72.940201 214.858917,70.929817 214.966003,63.885471 
	C215.018555,60.428875 216.007599,56.995426 216.335632,53.529053 
	C216.444000,52.383869 215.809433,51.168373 215.514557,49.985023 
	C214.192734,50.440731 212.384293,50.500439 211.634613,51.421722 
	C208.630142,55.113857 206.265991,59.303871 207.932053,64.253014 
	C209.400192,68.614265 207.276306,70.512856 203.706436,71.674385 
	C199.182953,73.146194 199.733902,69.132988 198.780777,66.816216 
	C188.179977,72.722687 187.148682,72.756752 183.686539,67.360405 
	C176.250198,73.273209 171.267929,73.276207 165.688843,68.052940 
	C160.940125,69.122322 156.795822,70.407555 152.571320,70.777840 
	C151.407135,70.879875 150.003708,68.252350 148.977356,66.295265 
	C149.175171,64.812744 149.105682,63.912239 149.036194,63.011730 
	C150.185684,58.002354 151.416336,53.009514 152.441956,47.974903 
	C152.816254,46.137459 152.703094,44.200699 152.128006,42.051697 
	C144.152084,46.036533 141.980392,53.409878 140.112396,61.711971 
	C139.852707,62.823452 139.968094,63.426014 140.083481,64.028572 
	C140.230652,65.160774 140.915878,66.869255 140.429733,67.323158 
	C138.552551,69.075859 136.301422,70.428070 134.189621,71.929504 
	C133.305466,70.046829 131.418732,67.988312 131.712677,66.312256 
	C132.912292,59.472324 134.817932,52.758327 136.372971,45.977180 
	C136.777573,44.212757 137.176651,42.338810 136.988541,40.578167 
	C136.812057,38.926159 135.855591,37.357475 135.242340,35.752125 
	C133.513474,36.475147 131.617981,36.957016 130.109680,37.999237 
	C128.950821,38.799992 128.279617,40.306530 126.851738,41.757668 
	C125.772354,42.287937 125.232788,42.559731 124.693214,42.831524 
	C125.109909,43.216187 125.526604,43.600853 125.943298,43.985516 
	C124.634048,49.054852 123.324799,54.124187 121.700104,59.605541 
	C120.901733,60.303398 120.418808,60.589233 119.935890,60.875069 
	C120.751404,61.259609 121.566917,61.644146 122.382431,62.028687 
	C123.751053,69.171021 122.675926,70.778618 115.362610,71.429123 
	C114.315048,68.276108 113.655396,65.639122 112.996262,62.751575 
	C112.997780,62.333965 112.998787,62.166920 113.154160,61.655762 
	C113.521812,59.829578 113.735092,58.347511 113.948364,56.865444 
	C114.891495,51.317513 115.957710,45.786167 116.708710,40.212349 
	C116.959976,38.347523 116.406433,36.374256 116.220772,34.450558 
	C114.628632,34.889591 113.047417,35.375660 111.440086,35.749336 
	C110.530739,35.960743 109.578468,35.987522 108.267197,36.142040 
	C107.765068,31.113705 110.640755,29.078211 114.514427,27.919300 
	C118.641647,26.684536 122.451294,26.615974 124.293251,32.190742 
	C124.449753,33.340271 124.693855,33.827454 124.937950,34.314636 
	C125.307823,33.926559 125.677696,33.538483 126.047562,33.150406 
	C128.468231,28.769907 132.280197,26.663641 137.151596,27.266867 
	C142.099213,27.879528 144.087585,31.358065 144.168579,36.651848 
	C144.448059,37.224308 144.746277,37.240330 145.044495,37.256351 
	C146.104919,36.435574 147.165329,35.614788 148.670120,35.090111 
	C151.846466,38.258667 153.738907,37.040936 155.281860,34.120369 
	C155.715912,34.145378 156.149979,34.170387 156.858063,34.785606 
	C157.798569,35.915550 158.465057,36.455280 159.131531,36.995010 
	C159.588440,39.091564 160.045349,41.188118 160.167297,43.737526 
	C159.905334,44.799465 159.978348,45.408543 160.051361,46.017620 
	C159.051941,51.842670 158.052536,57.667721 156.912186,64.314186 
	C161.224701,63.055176 163.581741,61.075272 164.711761,57.485752 
	C168.150955,46.561096 172.484695,43.487534 184.299011,43.358677 
	C185.058121,43.350395 185.908340,42.627491 186.552032,42.811432 
	C188.461090,43.356976 190.721588,43.763325 191.996521,45.058807 
	C192.864899,45.941162 192.554367,48.256413 192.344284,49.875580 
	C191.751633,54.442818 190.938797,58.981487 190.918869,63.732758 
	C195.529434,61.679607 199.027954,59.355804 199.827698,54.315670 
	C200.288025,51.414536 201.225296,48.484287 202.511536,45.841469 
	C204.964005,40.802399 206.375549,40.765350 210.749725,45.423409 
	C211.670303,45.260799 212.140396,44.733994 212.610489,44.207184 
	C221.765244,40.621059 226.263290,44.643845 224.437836,55.623951 
	C223.997330,56.735260 223.938843,57.349113 223.880371,57.962967 
	C223.606903,59.863327 223.333420,61.763683 223.059937,63.664043 
	C223.527359,63.946659 223.994781,64.229271 224.462204,64.511887 
	C226.231323,61.884304 228.000443,59.256718 230.213501,56.257465 
	C230.738312,55.245335 230.819199,54.604874 230.900055,53.964409 
	C234.080444,46.325409 239.819672,42.698769 247.871078,43.089977 
	C249.265656,43.157738 250.684357,42.729485 252.582291,43.018948 
	C254.549728,44.306850 256.026794,45.106144 257.503845,45.905437 
	C256.825897,49.334846 256.147919,52.764256 255.118088,56.715416 
	C254.976761,58.831978 255.187317,60.426792 255.397888,62.021606 
	C256.418549,62.375343 258.152313,63.264164 258.350159,63.000473 
	C260.448425,60.204159 262.678345,57.396343 264.117462,54.246910 
	C265.539948,51.133801 266.095703,47.624619 267.036987,44.291576 
	C265.772736,42.954647 264.503143,41.615318 263.233582,40.275986 
	C263.430450,39.907303 263.627350,39.538620 263.824219,39.169937 
	C265.501038,39.413052 267.177856,39.656166 269.203094,39.949795 
	C270.521210,38.085934 271.807495,35.984711 273.370972,34.115326 
	C276.556488,30.306580 280.356415,26.941372 285.635742,27.983124 
	C288.157898,28.480808 291.717560,30.592113 292.228638,32.621834 
	C292.829559,35.008381 291.441803,39.363667 289.479004,40.620766 
	C285.446289,43.203560 280.456207,44.291458 274.484711,46.504368 
	C274.041748,50.194061 273.162842,55.207214 272.981110,60.245510 
	C272.915131,62.075275 274.378937,64.051956 275.474152,65.748978 
	C275.676086,66.061890 278.334808,65.448341 278.372284,65.101646 
	C278.621246,62.798649 279.183289,60.124920 278.299438,58.183754 
	C276.096558,53.345680 277.289520,50.654892 282.697235,50.888535 
	C283.248016,51.778862 283.732849,51.915798 284.217712,52.052738 
	C285.565887,55.428909 286.914093,58.805077 288.262299,62.181248 
	C288.769104,62.297119 289.275909,62.412994 289.782745,62.528870 
	C290.785095,60.578655 291.787476,58.628441 293.305237,56.188370 
	C294.007721,54.504028 294.194855,53.309540 294.382019,52.115051 
	C298.061951,45.016338 304.528900,41.512756 311.852264,43.317440 
	C313.613983,43.751575 318.182037,42.730991 316.490723,47.975410 
	C316.122498,49.117264 319.464508,51.455669 320.864105,53.788383 
	C320.757507,54.890491 320.884491,55.447205 321.011536,56.003918 
	C320.911102,57.408535 320.810669,58.813152 320.659668,60.924641 
	C322.160034,60.098465 323.316132,59.461845 324.996582,59.038895 
	C325.680206,60.821110 325.839508,62.389660 325.998810,63.958206 
	C322.734039,64.933060 319.469238,65.907913 315.479736,67.044228 
	C314.172089,67.855217 313.589203,68.504745 313.006317,69.154282 
	C306.769623,72.915985 300.428497,72.583176 295.675964,68.244743 
	C293.755554,66.491661 286.297516,66.388199 284.290955,68.086800 
	C278.830780,72.708984 274.244568,73.046768 267.247894,68.720070 
	C266.318390,67.412453 265.656769,66.707085 264.995178,66.001717 
M174.118393,55.817421 
	C173.691360,59.165611 171.051437,63.368519 176.342865,64.911476 
	C179.718506,65.895798 182.882767,61.440079 183.184494,56.190994 
	C183.340393,53.478901 183.599655,50.772755 183.812225,48.063919 
	C183.367462,47.727013 182.922699,47.390106 182.477936,47.053200 
	C179.805008,49.749012 177.132080,52.444824 174.118393,55.817421 
M238.187653,62.098656 
	C239.460419,63.065376 241.624863,65.051636 241.866959,64.839897 
	C244.096893,62.889618 246.822754,60.861797 247.773346,58.260536 
	C248.898178,55.182522 248.407608,51.514168 248.621109,48.038830 
	C241.702850,49.722103 238.661697,53.633095 238.187653,62.098656 
M309.650818,62.494179 
	C306.046661,55.884418 306.519592,53.515541 312.505646,48.195213 
	C305.510681,47.961414 299.957489,54.310585 302.005676,60.728039 
	C302.564056,62.477566 304.886627,63.920353 306.726807,64.869133 
	C307.394714,65.213486 309.017700,63.705364 309.650818,62.494179 
M285.184326,37.497292 
	C285.270752,36.430763 285.357208,35.364231 285.443634,34.297699 
	C284.415283,34.455589 283.066650,34.258198 282.420868,34.840412 
	C280.730743,36.364140 279.347656,38.228428 277.842194,39.956959 
	C278.200653,40.371971 278.559143,40.786983 278.917633,41.201996 
	C280.839813,40.152977 282.762024,39.103958 285.184326,37.497292 
M317.009369,57.382065 
	C316.818909,56.105488 316.628448,54.828907 316.437988,53.552330 
	C315.673279,54.189011 314.908569,54.825695 314.143860,55.462379 
	C314.998016,56.302002 315.852173,57.141624 317.009369,57.382065 
M205.894730,46.342415 
	C205.894730,46.342415 205.986542,46.649487 205.986542,46.649487 
	C205.986542,46.649487 206.085815,46.343838 205.894730,46.342415 
z"/>
<path fill="#F3F4F5" opacity="1.000000" stroke="none" 
	d="
M112.999786,61.999878 
	C112.998787,62.166920 112.997780,62.333965 112.701508,62.812866 
	C111.934738,63.918926 111.463249,64.713127 110.991760,65.507332 
	C108.665054,67.065720 106.429436,68.788094 103.989769,70.143089 
	C100.546722,72.055367 97.415054,71.875107 95.477875,67.852959 
	C89.355057,72.674416 84.251183,72.593430 78.434677,67.707886 
	C69.389267,72.549095 67.821083,72.542458 64.560944,67.649155 
	C55.866779,73.332260 51.789879,73.188637 45.558800,67.212036 
	C42.188049,68.508904 38.958282,69.751526 35.198792,70.801727 
	C34.109924,70.864273 33.550777,71.119240 32.991631,71.374199 
	C29.944962,71.458466 26.898293,71.542732 23.330473,71.244736 
	C22.214457,70.884323 21.619589,70.906166 21.024723,70.928017 
	C20.545620,70.892265 20.066517,70.856506 19.119032,70.328369 
	C17.845802,69.651222 17.040953,69.466454 16.236105,69.281685 
	C10.704477,67.454071 8.775348,63.070385 8.355218,57.808029 
	C7.757891,50.326183 11.237062,45.086029 18.188726,41.699932 
	C13.846234,36.479538 12.103971,30.998093 14.620706,24.575056 
	C15.017529,23.562307 13.887479,21.933043 13.420099,20.604059 
	C12.659177,18.440393 11.862540,16.289286 10.944055,13.755103 
	C12.550541,13.662698 13.137714,13.439226 13.480791,13.637698 
	C18.478071,16.528648 21.963978,16.780277 28.059698,15.916046 
	C32.089119,15.344767 36.483772,14.977004 40.292458,16.036608 
	C42.931229,16.770733 44.850208,20.092123 46.840614,22.829321 
	C46.694504,24.256575 46.798576,25.111986 46.902649,25.967400 
	C44.867081,32.332920 38.015869,35.232700 30.182896,32.972542 
	C28.463503,32.476421 26.816204,31.730453 24.619127,30.905602 
	C24.754766,35.220966 25.179052,38.529026 30.393314,38.311447 
	C31.522806,38.264309 32.842049,38.404423 33.765476,38.965710 
	C34.752968,39.565937 35.996895,40.772446 35.987595,41.702908 
	C35.977772,42.685486 34.810440,44.045700 33.805763,44.531322 
	C32.529114,45.148399 30.910892,45.202320 29.433901,45.236271 
	C23.405514,45.374844 21.578074,46.851673 20.957073,52.288128 
	C20.273560,58.271812 22.187416,61.210812 27.701496,62.645157 
	C36.010933,64.806641 43.165581,61.373783 46.762875,53.499348 
	C50.172955,46.034725 55.948170,42.813629 65.412109,43.153824 
	C66.874107,39.186207 68.102264,35.071400 69.942444,31.251417 
	C70.659241,29.763418 73.568344,27.704639 74.074448,28.037998 
	C75.796509,29.172291 77.934998,31.229618 77.981453,32.985664 
	C78.050026,35.577442 76.760857,38.366550 75.519653,40.801311 
	C71.792091,48.113319 71.600525,55.830128 71.568459,64.129875 
	C80.574478,60.877182 80.777588,53.747528 81.790466,46.271576 
	C82.439362,45.053162 82.668579,44.389545 82.897797,43.725933 
	C89.372421,41.760170 91.718056,43.704834 90.521118,50.265507 
	C89.865387,53.859695 88.670418,57.359428 88.093018,60.961765 
	C87.902153,62.152561 88.882492,63.531086 89.327324,64.823776 
	C90.591393,64.206207 92.656509,63.866264 92.983154,62.923801 
	C94.533775,58.449707 95.624741,53.815178 96.849083,49.229683 
	C97.341637,47.384968 97.195267,44.912651 98.363121,43.832424 
	C99.556221,42.728836 102.211830,42.346684 103.827560,42.873753 
	C104.838791,43.203640 105.753578,45.862015 105.600746,47.362431 
	C105.048645,52.782494 104.025963,58.154625 102.944572,65.052612 
	C106.430382,62.121593 108.861130,60.077717 111.641418,58.348164 
	C112.327232,59.774948 112.663513,60.887413 112.999786,61.999878 
M64.196709,47.953327 
	C58.491447,49.496082 55.002811,53.203278 54.346764,59.032871 
	C54.138874,60.880135 55.387672,62.891331 55.969852,64.827507 
	C58.086693,63.874588 60.613590,63.348015 62.189312,61.832489 
	C63.427326,60.641762 63.648045,58.261490 64.035858,56.351803 
	C64.527306,53.931808 64.730392,51.453259 65.463997,48.933529 
	C65.645401,48.766212 65.826805,48.598896 66.008209,48.431580 
	C65.648453,48.296013 65.288704,48.160442 64.196709,47.953327 
M31.953701,27.701498 
	C32.931042,27.793505 34.055729,28.236366 34.853687,27.901245 
	C36.315582,27.287287 37.584587,26.214033 38.934025,25.332294 
	C37.596897,24.409126 36.256767,22.721426 34.923290,22.726667 
	C32.380009,22.736666 29.840521,23.712254 27.299459,24.286985 
	C27.324917,24.771795 27.350374,25.256605 27.375830,25.741415 
	C28.637678,26.303291 29.899525,26.865170 31.953701,27.701498 
z"/>
<path fill="#F1F2F3" opacity="1.000000" stroke="none" 
	d="
M111.309959,65.696350 
	C111.463249,64.713127 111.934738,63.918926 112.700989,63.063431 
	C113.655396,65.639122 114.315048,68.276108 114.996826,71.283493 
	C113.888680,69.731056 112.758423,67.808212 111.309959,65.696350 
z"/>
<path fill="#F3F4F5" opacity="1.000000" stroke="none" 
	d="
M155.121918,33.987164 
	C153.738907,37.040936 151.846466,38.258667 149.000275,35.009773 
	C149.399155,34.403500 149.912247,34.173664 150.775024,34.256226 
	C151.745178,34.364754 152.365631,34.160889 152.986099,33.957024 
	C153.644730,33.922672 154.303345,33.888313 155.121918,33.987164 
z"/>
<path fill="#F3F4F5" opacity="1.000000" stroke="none" 
	d="
M326.307861,63.790184 
	C325.839508,62.389660 325.680206,60.821110 325.295288,58.900124 
	C325.991699,58.700668 326.913757,58.853649 327.835846,59.006630 
	C327.429535,60.545139 327.023224,62.083649 326.307861,63.790184 
z"/>
<path fill="#F3F4F5" opacity="1.000000" stroke="none" 
	d="
M257.370422,45.563007 
	C256.026794,45.106144 254.549728,44.306850 253.051086,43.094925 
	C254.431992,43.528393 255.834488,44.374485 257.370422,45.563007 
z"/>
<path fill="#F3F4F5" opacity="1.000000" stroke="none" 
	d="
M255.484207,61.603172 
	C255.187317,60.426792 254.976761,58.831978 254.971985,57.107265 
	C255.308701,58.379826 255.439621,59.782284 255.484207,61.603172 
z"/>
<path fill="#F3F4F4" opacity="1.000000" stroke="none" 
	d="
M113.154160,61.655762 
	C112.663513,60.887413 112.327232,59.774948 111.984871,58.297680 
	C112.433640,57.605503 112.888504,57.278130 113.645866,56.908100 
	C113.735092,58.347511 113.521812,59.829578 113.154160,61.655762 
z"/>
<path fill="#F3F4F4" opacity="1.000000" stroke="none" 
	d="
M122.455780,61.765968 
	C121.566917,61.644146 120.751404,61.259609 119.935890,60.875069 
	C120.418808,60.589233 120.901733,60.303398 121.662666,60.016373 
	C122.136833,60.511204 122.332985,61.007229 122.455780,61.765968 
z"/>
<path fill="#F3F4F5" opacity="1.000000" stroke="none" 
	d="
M148.871704,63.235825 
	C149.105682,63.912239 149.175171,64.812744 149.001862,65.905487 
	C148.741776,65.218460 148.724503,64.339188 148.871704,63.235825 
z"/>
<path fill="#F3F4F5" opacity="1.000000" stroke="none" 
	d="
M256.252380,70.787827 
	C256.654938,70.228477 257.319153,69.711060 258.139648,69.457489 
	C257.701965,70.090805 257.108002,70.460289 256.252380,70.787827 
z"/>
<path fill="#F3F4F5" opacity="1.000000" stroke="none" 
	d="
M294.174438,52.397972 
	C294.194855,53.309540 294.007721,54.504028 293.461334,55.850819 
	C293.390320,54.895710 293.678558,53.788300 294.174438,52.397972 
z"/>
<path fill="#F3F4F5" opacity="1.000000" stroke="none" 
	d="
M126.153885,43.787964 
	C125.526604,43.600853 125.109909,43.216187 124.693214,42.831524 
	C125.232788,42.559731 125.772354,42.287937 126.611931,42.006256 
	C126.729439,42.527714 126.546951,43.059063 126.153885,43.787964 
z"/>
<path fill="#F3F4F4" opacity="1.000000" stroke="none" 
	d="
M47.069946,25.752808 
	C46.798576,25.111986 46.694504,24.256575 46.798264,23.199352 
	C47.083145,23.844433 47.160194,24.691326 47.069946,25.752808 
z"/>
<path fill="#F3F4F5" opacity="1.000000" stroke="none" 
	d="
M264.994995,66.307770 
	C265.656769,66.707085 266.318390,67.412453 266.995300,68.441650 
	C266.338654,68.048256 265.666748,67.331039 264.994995,66.307770 
z"/>
<path fill="#F3F4F5" opacity="1.000000" stroke="none" 
	d="
M230.659195,54.134346 
	C230.819199,54.604874 230.738312,55.245335 230.399918,55.945175 
	C230.234375,55.437801 230.326355,54.871044 230.659195,54.134346 
z"/>
<path fill="#F3F4F5" opacity="1.000000" stroke="none" 
	d="
M321.134918,55.825897 
	C320.884491,55.447205 320.757507,54.890491 320.813110,54.167747 
	C321.083252,54.550442 321.170776,55.099159 321.134918,55.825897 
z"/>
<path fill="#F3F4F5" opacity="1.000000" stroke="none" 
	d="
M224.081436,57.769993 
	C223.938843,57.349113 223.997330,56.735260 224.281891,56.051628 
	C224.432831,56.513573 224.357666,57.045296 224.081436,57.769993 
z"/>
<path fill="#F3F4F4" opacity="1.000000" stroke="none" 
	d="
M21.233669,71.100197 
	C21.619589,70.906166 22.214457,70.884323 22.907913,71.061646 
	C22.485207,71.264671 21.963911,71.268524 21.233669,71.100197 
z"/>
<path fill="#F3F4F5" opacity="1.000000" stroke="none" 
	d="
M212.283142,44.277107 
	C212.140396,44.733994 211.670303,45.260799 211.097870,45.527321 
	C211.315628,44.960369 211.635727,44.653702 212.283142,44.277107 
z"/>
<path fill="#F3F4F5" opacity="1.000000" stroke="none" 
	d="
M160.207413,45.787842 
	C159.978348,45.408543 159.905334,44.799465 160.034775,44.084503 
	C160.279312,44.505104 160.321396,45.031586 160.207413,45.787842 
z"/>
<path fill="#F3F4F4" opacity="1.000000" stroke="none" 
	d="
M82.613647,43.815739 
	C82.668579,44.389545 82.439362,45.053162 81.977913,45.861710 
	C81.940292,45.306278 82.134895,44.605911 82.613647,43.815739 
z"/>
<path fill="#F3F4F4" opacity="1.000000" stroke="none" 
	d="
M16.429226,69.533829 
	C17.040953,69.466454 17.845802,69.651222 18.828316,70.105042 
	C18.211437,70.178055 17.416893,69.982018 16.429226,69.533829 
z"/>
<path fill="#F3F4F5" opacity="1.000000" stroke="none" 
	d="
M140.197128,63.786491 
	C139.968094,63.426014 139.852707,62.823452 139.927078,62.100624 
	C140.181473,62.501705 140.246124,63.023060 140.197128,63.786491 
z"/>
<path fill="#F3F4F5" opacity="1.000000" stroke="none" 
	d="
M159.065933,36.669514 
	C158.465057,36.455280 157.798569,35.915550 157.076050,35.033390 
	C157.680130,35.241978 158.340225,35.792995 159.065933,36.669514 
z"/>
<path fill="#F9FAFA" opacity="1.000000" stroke="none" 
	d="
M152.655670,33.861820 
	C152.365631,34.160889 151.745178,34.364754 151.063293,34.304260 
	C151.442993,33.948807 151.884109,33.857712 152.655670,33.861820 
z"/>
<path fill="#F3F4F4" opacity="1.000000" stroke="none" 
	d="
M125.703735,33.132591 
	C125.677696,33.538483 125.307823,33.926559 124.937950,34.314636 
	C124.693855,33.827454 124.449753,33.340271 124.257431,32.538250 
	C124.659447,32.520535 125.009682,32.817657 125.703735,33.132591 
z"/>
<path fill="#F3F4F5" opacity="1.000000" stroke="none" 
	d="
M313.329010,69.080429 
	C313.589203,68.504745 314.172089,67.855217 315.110260,67.184128 
	C314.860931,67.777245 314.256317,68.391914 313.329010,69.080429 
z"/>
<path fill="#F3F4F4" opacity="1.000000" stroke="none" 
	d="
M33.248695,71.475647 
	C33.550777,71.119240 34.109924,70.864273 34.823029,70.775505 
	C34.486576,71.153496 33.996170,71.365288 33.248695,71.475647 
z"/>
<path fill="#F3F4F5" opacity="1.000000" stroke="none" 
	d="
M144.777695,37.199825 
	C144.746277,37.240330 144.448059,37.224308 144.093399,37.040794 
	C144.194931,36.963299 144.352921,37.053303 144.777695,37.199825 
z"/>
<path fill="#F3F4F5" opacity="1.000000" stroke="none" 
	d="
M284.122345,51.744862 
	C283.732849,51.915798 283.248016,51.778862 282.867737,51.212757 
	C283.323914,51.001389 283.675446,51.219185 284.122345,51.744862 
z"/>
<path fill="#39393A" opacity="1.000000" stroke="none" 
	d="
M174.288757,55.479027 
	C177.132080,52.444824 179.805008,49.749012 182.477936,47.053200 
	C182.922699,47.390106 183.367462,47.727013 183.812225,48.063919 
	C183.599655,50.772755 183.340393,53.478901 183.184494,56.190994 
	C182.882767,61.440079 179.718506,65.895798 176.342865,64.911476 
	C171.051437,63.368519 173.691360,59.165611 174.288757,55.479027 
z"/>
<path fill="#393A3C" opacity="1.000000" stroke="none" 
	d="
M238.161957,61.691414 
	C238.661697,53.633095 241.702850,49.722103 248.621109,48.038830 
	C248.407608,51.514168 248.898178,55.182522 247.773346,58.260536 
	C246.822754,60.861797 244.096893,62.889618 241.866959,64.839897 
	C241.624863,65.051636 239.460419,63.065376 238.161957,61.691414 
z"/>
<path fill="#3F4040" opacity="1.000000" stroke="none" 
	d="
M309.927856,62.768326 
	C309.017700,63.705364 307.394714,65.213486 306.726807,64.869133 
	C304.886627,63.920353 302.564056,62.477566 302.005676,60.728039 
	C299.957489,54.310585 305.510681,47.961414 312.505646,48.195213 
	C306.519592,53.515541 306.046661,55.884418 309.927856,62.768326 
z"/>
<path fill="#454545" opacity="1.000000" stroke="none" 
	d="
M284.934265,37.776115 
	C282.762024,39.103958 280.839813,40.152977 278.917633,41.201996 
	C278.559143,40.786983 278.200653,40.371971 277.842194,39.956959 
	C279.347656,38.228428 280.730743,36.364140 282.420868,34.840412 
	C283.066650,34.258198 284.415283,34.455589 285.443665,34.297699 
	C285.357208,35.364231 285.270752,36.430763 284.934265,37.776115 
z"/>
<path fill="#F3F4F5" opacity="1.000000" stroke="none" 
	d="
M316.857849,57.681656 
	C315.852173,57.141624 314.998016,56.302002 314.143860,55.462379 
	C314.908569,54.825695 315.673279,54.189011 316.437988,53.552330 
	C316.628448,54.828907 316.818909,56.105488 316.857849,57.681656 
z"/>
<path fill="#F3F4F5" opacity="1.000000" stroke="none" 
	d="
M205.990265,46.343124 
	C206.085815,46.343838 205.986542,46.649487 205.986542,46.649487 
	C205.986542,46.649487 205.894730,46.342415 205.990265,46.343124 
z"/>
<path fill="#393A3C" opacity="1.000000" stroke="none" 
	d="
M65.057831,48.999958 
	C64.730392,51.453259 64.527306,53.931808 64.035858,56.351803 
	C63.648045,58.261490 63.427326,60.641762 62.189312,61.832489 
	C60.613590,63.348015 58.086693,63.874588 55.969852,64.827507 
	C55.387672,62.891331 54.138874,60.880135 54.346764,59.032871 
	C55.002811,53.203278 58.491447,49.496082 64.563446,48.237045 
	C64.930183,48.520767 65.057831,48.999958 65.057831,48.999958 
z"/>
<path fill="#484848" opacity="1.000000" stroke="none" 
	d="
M31.557537,27.564272 
	C29.899525,26.865170 28.637678,26.303291 27.375830,25.741415 
	C27.350374,25.256605 27.324917,24.771795 27.299459,24.286985 
	C29.840521,23.712254 32.380009,22.736666 34.923290,22.726667 
	C36.256767,22.721426 37.596897,24.409126 38.934025,25.332294 
	C37.584587,26.214033 36.315582,27.287287 34.853687,27.901245 
	C34.055729,28.236366 32.931042,27.793505 31.557537,27.564272 
z"/>
<path fill="#F3F4F4" opacity="1.000000" stroke="none" 
	d="
M65.260910,48.966743 
	C65.057831,48.999958 64.930183,48.520767 64.929565,48.272820 
	C65.288704,48.160442 65.648453,48.296013 66.008209,48.431580 
	C65.826805,48.598896 65.645401,48.766212 65.260910,48.966743 
z"/>
</svg>